<svg width="264" height="37" viewBox="0 0 264 37" fill="none" xmlns="http://www.w3.org/2000/svg">
<path d="M153.993 6.5H152.991C152.917 6.12713 152.782 5.78267 152.587 5.46662C152.395 5.14702 152.153 4.86825 151.862 4.63033C151.571 4.3924 151.241 4.20774 150.871 4.07635C150.502 3.94496 150.103 3.87926 149.673 3.87926C148.984 3.87926 148.355 4.05859 147.787 4.41726C147.223 4.77592 146.77 5.30327 146.429 5.99929C146.092 6.69176 145.923 7.54048 145.923 8.54545C145.923 9.55753 146.092 10.4098 146.429 11.1023C146.77 11.7947 147.223 12.3203 147.787 12.679C148.355 13.0341 148.984 13.2116 149.673 13.2116C150.103 13.2116 150.502 13.146 150.871 13.0146C151.241 12.8832 151.571 12.7003 151.862 12.4659C152.153 12.228 152.395 11.9492 152.587 11.6296C152.782 11.31 152.917 10.9638 152.991 10.5909H153.993C153.904 11.0916 153.737 11.5586 153.492 11.9918C153.251 12.4215 152.942 12.7979 152.565 13.1211C152.192 13.4442 151.763 13.6964 151.276 13.8775C150.79 14.0586 150.255 14.1491 149.673 14.1491C148.757 14.1491 147.944 13.9201 147.233 13.462C146.523 13.0004 145.966 12.3505 145.561 11.5124C145.159 10.6744 144.959 9.68537 144.959 8.54545C144.959 7.40554 145.159 6.41655 145.561 5.57848C145.966 4.74041 146.523 4.09233 147.233 3.63423C147.944 3.17258 148.757 2.94176 149.673 2.94176C150.255 2.94176 150.79 3.03232 151.276 3.21342C151.763 3.39098 152.192 3.64311 152.565 3.96982C152.942 4.29297 153.251 4.66939 153.492 5.09908C153.737 5.52876 153.904 5.99574 153.993 6.5ZM159.316 14.1705C158.609 14.1705 157.984 13.9911 157.441 13.6325C156.901 13.2738 156.478 12.7784 156.173 12.1463C155.867 11.5107 155.715 10.7773 155.715 9.94638C155.715 9.10831 155.867 8.37145 156.173 7.7358C156.478 7.09659 156.901 6.59943 157.441 6.24432C157.984 5.88565 158.609 5.70632 159.316 5.70632C160.022 5.70632 160.646 5.88565 161.185 6.24432C161.725 6.60298 162.148 7.10014 162.453 7.7358C162.762 8.37145 162.916 9.10831 162.916 9.94638C162.916 10.7773 162.764 11.5107 162.458 12.1463C162.153 12.7784 161.729 13.2738 161.185 13.6325C160.646 13.9911 160.022 14.1705 159.316 14.1705ZM159.316 13.3022C159.884 13.3022 160.365 13.1495 160.759 12.8441C161.153 12.5387 161.452 12.1321 161.654 11.6243C161.86 11.1165 161.963 10.5572 161.963 9.94638C161.963 9.33558 161.86 8.7745 161.654 8.26314C161.452 7.75178 161.153 7.34162 160.759 7.03267C160.365 6.72372 159.884 6.56925 159.316 6.56925C158.751 6.56925 158.27 6.72372 157.872 7.03267C157.478 7.34162 157.178 7.75178 156.972 8.26314C156.769 8.7745 156.668 9.33558 156.668 9.94638C156.668 10.5572 156.769 11.1165 156.972 11.6243C157.178 12.1321 157.478 12.5387 157.872 12.8441C158.266 13.1495 158.747 13.3022 159.316 13.3022ZM168.178 14.1705C167.471 14.1705 166.846 13.9911 166.303 13.6325C165.763 13.2738 165.341 12.7784 165.035 12.1463C164.73 11.5107 164.577 10.7773 164.577 9.94638C164.577 9.10831 164.73 8.37145 165.035 7.7358C165.341 7.09659 165.763 6.59943 166.303 6.24432C166.846 5.88565 167.471 5.70632 168.178 5.70632C168.885 5.70632 169.508 5.88565 170.048 6.24432C170.587 6.60298 171.01 7.10014 171.315 7.7358C171.624 8.37145 171.779 9.10831 171.779 9.94638C171.779 10.7773 171.626 11.5107 171.321 12.1463C171.015 12.7784 170.591 13.2738 170.048 13.6325C169.508 13.9911 168.885 14.1705 168.178 14.1705ZM168.178 13.3022C168.746 13.3022 169.227 13.1495 169.621 12.8441C170.016 12.5387 170.314 12.1321 170.516 11.6243C170.722 11.1165 170.825 10.5572 170.825 9.94638C170.825 9.33558 170.722 8.7745 170.516 8.26314C170.314 7.75178 170.016 7.34162 169.621 7.03267C169.227 6.72372 168.746 6.56925 168.178 6.56925C167.613 6.56925 167.132 6.72372 166.734 7.03267C166.34 7.34162 166.04 7.75178 165.834 8.26314C165.632 8.7745 165.531 9.33558 165.531 9.94638C165.531 10.5572 165.632 11.1165 165.834 11.6243C166.04 12.1321 166.34 12.5387 166.734 12.8441C167.129 13.1495 167.61 13.3022 168.178 13.3022ZM173.86 14V5.81818H174.782V7.07528H174.851C175.014 6.66335 175.298 6.33132 175.703 6.07919C176.112 5.82351 176.573 5.69567 177.088 5.69567C177.166 5.69567 177.253 5.69744 177.349 5.70099C177.445 5.70455 177.525 5.7081 177.589 5.71165V6.67578C177.546 6.66868 177.472 6.65803 177.365 6.64382C177.259 6.62962 177.143 6.62251 177.019 6.62251C176.593 6.62251 176.213 6.71307 175.879 6.89418C175.549 7.07173 175.288 7.31854 175.096 7.63459C174.904 7.95064 174.808 8.31108 174.808 8.71591V14H173.86ZM181.903 14.1705C181.232 14.1705 180.645 13.9929 180.14 13.6378C179.636 13.2827 179.242 12.7873 178.958 12.1516C178.677 11.516 178.537 10.7756 178.537 9.9304C178.537 9.08878 178.677 8.35192 178.958 7.71982C179.242 7.08416 179.638 6.59055 180.146 6.23899C180.653 5.88388 181.245 5.70632 181.919 5.70632C182.417 5.70632 182.83 5.7951 183.161 5.97266C183.491 6.14666 183.755 6.36328 183.954 6.62251C184.153 6.88175 184.308 7.13388 184.418 7.37891H184.503V3.09091H185.456V14H184.53V12.4819H184.418C184.308 12.7305 184.151 12.9862 183.949 13.2489C183.747 13.5082 183.478 13.7266 183.145 13.9041C182.814 14.0817 182.401 14.1705 181.903 14.1705ZM182.015 13.3022C182.544 13.3022 182.995 13.1584 183.368 12.8707C183.741 12.5795 184.025 12.18 184.221 11.6722C184.419 11.1609 184.519 10.5749 184.519 9.91442C184.519 9.26101 184.421 8.68395 184.226 8.18324C184.031 7.67898 183.747 7.2848 183.374 7.00071C183.001 6.71307 182.548 6.56925 182.015 6.56925C181.468 6.56925 181.007 6.71839 180.63 7.01669C180.258 7.31143 179.973 7.71094 179.778 8.2152C179.586 8.71946 179.491 9.28587 179.491 9.91442C179.491 10.5501 179.588 11.1236 179.783 11.6349C179.979 12.1463 180.263 12.5529 180.636 12.8548C181.012 13.1531 181.472 13.3022 182.015 13.3022ZM188.168 14V5.81818H189.121V14H188.168ZM188.652 4.41193C188.457 4.41193 188.29 4.34624 188.152 4.21484C188.013 4.0799 187.944 3.91832 187.944 3.73011C187.944 3.5419 188.013 3.3821 188.152 3.25071C188.29 3.11577 188.457 3.04829 188.652 3.04829C188.848 3.04829 189.015 3.11577 189.153 3.25071C189.292 3.3821 189.361 3.5419 189.361 3.73011C189.361 3.91832 189.292 4.0799 189.153 4.21484C189.015 4.34624 188.848 4.41193 188.652 4.41193ZM192.577 8.88636V14H191.629V5.81818H192.55V7.10192H192.635C192.827 6.68288 193.126 6.3473 193.53 6.09517C193.939 5.83949 194.443 5.71165 195.043 5.71165C195.594 5.71165 196.077 5.82706 196.492 6.05788C196.911 6.28516 197.236 6.62074 197.467 7.06463C197.701 7.50852 197.818 8.05362 197.818 8.69993V14H196.87V8.75852C196.87 8.08736 196.682 7.55646 196.306 7.16584C195.933 6.77521 195.432 6.5799 194.803 6.5799C194.374 6.5799 193.992 6.67223 193.658 6.85689C193.324 7.04155 193.06 7.30788 192.865 7.65589C192.673 8.00035 192.577 8.41051 192.577 8.88636ZM202.6 14.1864C202.107 14.1864 201.656 14.0906 201.247 13.8988C200.839 13.7035 200.514 13.4229 200.273 13.0572C200.031 12.6879 199.91 12.2404 199.91 11.7148C199.91 11.31 199.987 10.9691 200.139 10.6921C200.292 10.4151 200.509 10.1879 200.789 10.0103C201.07 9.83274 201.402 9.69247 201.785 9.58949C202.169 9.48651 202.592 9.4066 203.053 9.34979C203.511 9.29297 203.898 9.24325 204.214 9.20064C204.534 9.15803 204.777 9.09055 204.944 8.99822C205.111 8.90589 205.195 8.75675 205.195 8.55078V8.35902C205.195 7.80149 205.028 7.36293 204.694 7.04332C204.364 6.72017 203.888 6.55859 203.266 6.55859C202.677 6.55859 202.196 6.68821 201.823 6.94744C201.453 7.20668 201.194 7.51207 201.045 7.86364L200.145 7.53871C200.329 7.09126 200.585 6.73437 200.912 6.46804C201.239 6.19815 201.604 6.00462 202.009 5.88743C202.414 5.76669 202.824 5.70632 203.24 5.70632C203.552 5.70632 203.877 5.74716 204.214 5.82884C204.555 5.91051 204.871 6.05256 205.163 6.25497C205.454 6.45384 205.69 6.7326 205.871 7.09126C206.052 7.44638 206.143 7.89737 206.143 8.44425V14H205.195V12.7056H205.136C205.022 12.9471 204.854 13.1815 204.63 13.4087C204.406 13.636 204.126 13.8224 203.788 13.968C203.451 14.1136 203.055 14.1864 202.6 14.1864ZM202.728 13.3182C203.233 13.3182 203.669 13.2063 204.039 12.9826C204.408 12.7589 204.692 12.4624 204.891 12.093C205.093 11.7202 205.195 11.31 205.195 10.8626V9.68004C205.123 9.74751 205.005 9.80788 204.838 9.86115C204.674 9.91442 204.484 9.96236 204.268 10.005C204.055 10.044 203.842 10.0778 203.628 10.1062C203.415 10.1346 203.224 10.1594 203.053 10.1808C202.592 10.2376 202.197 10.3263 201.871 10.4471C201.544 10.5678 201.294 10.7347 201.12 10.9478C200.946 11.1573 200.859 11.4272 200.859 11.7575C200.859 12.2546 201.036 12.6399 201.391 12.9134C201.746 13.1832 202.192 13.3182 202.728 13.3182ZM211.861 14.1705C211.129 14.1705 210.492 13.9876 209.949 13.6218C209.409 13.256 208.99 12.7553 208.691 12.1197C208.393 11.484 208.244 10.7596 208.244 9.94638C208.244 9.12607 208.395 8.39631 208.697 7.7571C209.002 7.1179 209.425 6.61719 209.965 6.25497C210.504 5.8892 211.131 5.70632 211.845 5.70632C212.392 5.70632 212.887 5.81286 213.331 6.02592C213.775 6.23544 214.141 6.53196 214.428 6.91548C214.72 7.29545 214.902 7.73935 214.977 8.24716H214.018C213.919 7.78551 213.679 7.39134 213.299 7.06463C212.923 6.73437 212.443 6.56925 211.861 6.56925C211.339 6.56925 210.877 6.71129 210.476 6.99538C210.075 7.27592 209.76 7.66832 209.533 8.17258C209.309 8.6733 209.198 9.25391 209.198 9.91442C209.198 10.5785 209.308 11.1662 209.528 11.6776C209.748 12.1854 210.057 12.5831 210.455 12.8707C210.856 13.1584 211.325 13.3022 211.861 13.3022C212.223 13.3022 212.553 13.2347 212.852 13.0998C213.153 12.9613 213.406 12.766 213.608 12.5138C213.814 12.2617 213.953 11.9616 214.024 11.6136H214.982C214.911 12.1072 214.736 12.5476 214.455 12.9347C214.178 13.3182 213.818 13.62 213.374 13.8402C212.933 14.0604 212.429 14.1705 211.861 14.1705ZM217.025 14V5.81818H217.979V14H217.025ZM217.51 4.41193C217.315 4.41193 217.148 4.34624 217.009 4.21484C216.871 4.0799 216.801 3.91832 216.801 3.73011C216.801 3.5419 216.871 3.3821 217.009 3.25071C217.148 3.11577 217.315 3.04829 217.51 3.04829C217.705 3.04829 217.872 3.11577 218.011 3.25071C218.149 3.3821 218.218 3.5419 218.218 3.73011C218.218 3.91832 218.149 4.0799 218.011 4.21484C217.872 4.34624 217.705 4.41193 217.51 4.41193ZM223.666 14.1705C222.96 14.1705 222.335 13.9911 221.791 13.6325C221.251 13.2738 220.829 12.7784 220.523 12.1463C220.218 11.5107 220.065 10.7773 220.065 9.94638C220.065 9.10831 220.218 8.37145 220.523 7.7358C220.829 7.09659 221.251 6.59943 221.791 6.24432C222.335 5.88565 222.96 5.70632 223.666 5.70632C224.373 5.70632 224.996 5.88565 225.536 6.24432C226.076 6.60298 226.498 7.10014 226.804 7.7358C227.113 8.37145 227.267 9.10831 227.267 9.94638C227.267 10.7773 227.114 11.5107 226.809 12.1463C226.504 12.7784 226.079 13.2738 225.536 13.6325C224.996 13.9911 224.373 14.1705 223.666 14.1705ZM223.666 13.3022C224.234 13.3022 224.716 13.1495 225.11 12.8441C225.504 12.5387 225.802 12.1321 226.005 11.6243C226.211 11.1165 226.314 10.5572 226.314 9.94638C226.314 9.33558 226.211 8.7745 226.005 8.26314C225.802 7.75178 225.504 7.34162 225.11 7.03267C224.716 6.72372 224.234 6.56925 223.666 6.56925C223.102 6.56925 222.62 6.72372 222.223 7.03267C221.828 7.34162 221.528 7.75178 221.322 8.26314C221.12 8.7745 221.019 9.33558 221.019 9.94638C221.019 10.5572 221.12 11.1165 221.322 11.6243C221.528 12.1321 221.828 12.5387 222.223 12.8441C222.617 13.1495 223.098 13.3022 223.666 13.3022ZM223.224 4.68359L224.588 2.26527H225.712L224.076 4.68359H223.224ZM230.297 8.88636V14H229.348V5.81818H230.27V7.10192H230.355C230.547 6.68288 230.845 6.3473 231.25 6.09517C231.658 5.83949 232.163 5.71165 232.763 5.71165C233.313 5.71165 233.796 5.82706 234.212 6.05788C234.631 6.28516 234.956 6.62074 235.187 7.06463C235.421 7.50852 235.538 8.05362 235.538 8.69993V14H234.59V8.75852C234.59 8.08736 234.402 7.55646 234.025 7.16584C233.652 6.77521 233.152 6.5799 232.523 6.5799C232.093 6.5799 231.712 6.67223 231.378 6.85689C231.044 7.04155 230.78 7.30788 230.584 7.65589C230.392 8.00035 230.297 8.41051 230.297 8.88636ZM245.199 14.1705C244.528 14.1705 243.941 13.9929 243.436 13.6378C242.932 13.2827 242.538 12.7873 242.254 12.1516C241.973 11.516 241.833 10.7756 241.833 9.9304C241.833 9.08878 241.973 8.35192 242.254 7.71982C242.538 7.08416 242.934 6.59055 243.442 6.23899C243.949 5.88388 244.541 5.70632 245.215 5.70632C245.713 5.70632 246.126 5.7951 246.456 5.97266C246.787 6.14666 247.051 6.36328 247.25 6.62251C247.449 6.88175 247.604 7.13388 247.714 7.37891H247.799V3.09091H248.752V14H247.825V12.4819H247.714C247.604 12.7305 247.447 12.9862 247.245 13.2489C247.042 13.5082 246.774 13.7266 246.441 13.9041C246.11 14.0817 245.697 14.1705 245.199 14.1705ZM245.311 13.3022C245.84 13.3022 246.291 13.1584 246.664 12.8707C247.037 12.5795 247.321 12.18 247.517 11.6722C247.715 11.1609 247.815 10.5749 247.815 9.91442C247.815 9.26101 247.717 8.68395 247.522 8.18324C247.327 7.67898 247.042 7.2848 246.67 7.00071C246.297 6.71307 245.844 6.56925 245.311 6.56925C244.764 6.56925 244.303 6.71839 243.926 7.01669C243.553 7.31143 243.269 7.71094 243.074 8.2152C242.882 8.71946 242.786 9.28587 242.786 9.91442C242.786 10.5501 242.884 11.1236 243.079 11.6349C243.275 12.1463 243.559 12.5529 243.932 12.8548C244.308 13.1531 244.768 13.3022 245.311 13.3022ZM254.761 14.1705C253.997 14.1705 253.337 13.9929 252.779 13.6378C252.222 13.2791 251.79 12.7837 251.485 12.1516C251.183 11.516 251.032 10.7844 251.032 9.95703C251.032 9.13317 251.183 8.40163 251.485 7.76243C251.79 7.11967 252.211 6.61719 252.747 6.25497C253.287 5.8892 253.91 5.70632 254.617 5.70632C255.061 5.70632 255.489 5.788 255.901 5.95135C256.313 6.11115 256.682 6.35795 257.009 6.69176C257.339 7.02202 257.6 7.43928 257.792 7.94354C257.983 8.44425 258.079 9.03729 258.079 9.72266V10.1914H251.687V9.35511H257.11C257.11 8.82955 257.003 8.35724 256.79 7.93821C256.581 7.51562 256.288 7.18182 255.911 6.93679C255.539 6.69176 255.107 6.56925 254.617 6.56925C254.099 6.56925 253.642 6.70774 253.248 6.98473C252.854 7.26172 252.545 7.62749 252.321 8.08203C252.101 8.53658 251.989 9.03374 251.986 9.57351V10.0742C251.986 10.7241 252.097 11.2923 252.321 11.7788C252.548 12.2617 252.87 12.6364 253.285 12.9027C253.701 13.169 254.193 13.3022 254.761 13.3022C255.148 13.3022 255.487 13.2418 255.778 13.1211C256.073 13.0004 256.32 12.8388 256.519 12.6364C256.721 12.4304 256.874 12.2049 256.977 11.9599L257.877 12.2528C257.753 12.5973 257.548 12.9151 257.264 13.2063C256.984 13.4975 256.632 13.7319 256.21 13.9094C255.791 14.0835 255.308 14.1705 254.761 14.1705ZM146.445 21.0909V32H145.449V21.0909H146.445ZM150.096 26.8864V32H149.148V23.8182H150.07V25.1019H150.155C150.347 24.6829 150.645 24.3473 151.05 24.0952C151.458 23.8395 151.963 23.7116 152.563 23.7116C153.113 23.7116 153.596 23.8271 154.012 24.0579C154.431 24.2852 154.756 24.6207 154.986 25.0646C155.221 25.5085 155.338 26.0536 155.338 26.6999V32H154.39V26.7585C154.39 26.0874 154.202 25.5565 153.825 25.1658C153.452 24.7752 152.952 24.5799 152.323 24.5799C151.893 24.5799 151.512 24.6722 151.178 24.8569C150.844 25.0415 150.579 25.3079 150.384 25.6559C150.192 26.0004 150.096 26.4105 150.096 26.8864ZM163.875 23.8182L160.887 32H159.875L156.887 23.8182H157.915L160.344 30.7482H160.418L162.847 23.8182H163.875ZM168.745 32.1705C167.982 32.1705 167.321 31.9929 166.764 31.6378C166.206 31.2791 165.775 30.7837 165.469 30.1516C165.167 29.516 165.017 28.7844 165.017 27.957C165.017 27.1332 165.167 26.4016 165.469 25.7624C165.775 25.1197 166.195 24.6172 166.732 24.255C167.271 23.8892 167.895 23.7063 168.601 23.7063C169.045 23.7063 169.473 23.788 169.885 23.9513C170.297 24.1112 170.666 24.358 170.993 24.6918C171.323 25.022 171.584 25.4393 171.776 25.9435C171.968 26.4442 172.064 27.0373 172.064 27.7227V28.1914H165.672V27.3551H171.094C171.094 26.8295 170.988 26.3572 170.775 25.9382C170.565 25.5156 170.272 25.1818 169.896 24.9368C169.523 24.6918 169.091 24.5692 168.601 24.5692C168.083 24.5692 167.627 24.7077 167.232 24.9847C166.838 25.2617 166.529 25.6275 166.306 26.082C166.085 26.5366 165.974 27.0337 165.97 27.5735V28.0742C165.97 28.7241 166.082 29.2923 166.306 29.7788C166.533 30.2617 166.854 30.6364 167.27 30.9027C167.685 31.169 168.177 31.3022 168.745 31.3022C169.132 31.3022 169.471 31.2418 169.763 31.1211C170.057 31.0004 170.304 30.8388 170.503 30.6364C170.705 30.4304 170.858 30.2049 170.961 29.9599L171.861 30.2528C171.737 30.5973 171.533 30.9151 171.249 31.2063C170.968 31.4975 170.617 31.7319 170.194 31.9094C169.775 32.0835 169.292 32.1705 168.745 32.1705ZM179.65 25.6133L178.782 25.8583C178.697 25.6133 178.576 25.3913 178.42 25.1925C178.264 24.9936 178.059 24.8356 177.807 24.7184C177.559 24.6012 177.25 24.5426 176.88 24.5426C176.326 24.5426 175.872 24.674 175.517 24.9368C175.162 25.1996 174.984 25.5387 174.984 25.9542C174.984 26.3058 175.105 26.5916 175.346 26.8118C175.591 27.0284 175.968 27.2006 176.476 27.3285L177.711 27.6321C178.397 27.799 178.91 28.0636 179.251 28.4258C179.595 28.788 179.767 29.2425 179.767 29.7894C179.767 30.2511 179.64 30.6612 179.384 31.0199C179.128 31.3786 178.771 31.6609 178.313 31.8668C177.859 32.0692 177.331 32.1705 176.731 32.1705C175.932 32.1705 175.274 31.9911 174.755 31.6325C174.237 31.2702 173.905 30.7482 173.759 30.0664L174.67 29.8427C174.787 30.3292 175.016 30.6967 175.357 30.9453C175.701 31.1939 176.154 31.3182 176.715 31.3182C177.344 31.3182 177.846 31.1779 178.223 30.8974C178.599 30.6133 178.787 30.2582 178.787 29.832C178.787 29.5018 178.677 29.2248 178.457 29.0011C178.237 28.7738 177.903 28.6069 177.456 28.5004L176.119 28.1808C175.408 28.0103 174.883 27.7404 174.542 27.3711C174.201 27.0018 174.031 26.5437 174.031 25.9968C174.031 25.5458 174.153 25.1499 174.398 24.8089C174.643 24.4645 174.981 24.1946 175.41 23.9993C175.84 23.804 176.33 23.7063 176.88 23.7063C177.63 23.7063 178.228 23.8768 178.676 24.2177C179.127 24.555 179.451 25.0202 179.65 25.6133ZM185.066 23.8182V24.6438H181.162V23.8182H185.066ZM182.382 21.858H183.335V29.864C183.335 30.2049 183.394 30.473 183.511 30.6683C183.628 30.8601 183.781 30.9968 183.969 31.0785C184.157 31.1566 184.358 31.1957 184.571 31.1957C184.695 31.1957 184.802 31.1886 184.89 31.1744C184.979 31.1566 185.057 31.1388 185.125 31.1211L185.327 31.9787C185.235 32.0142 185.121 32.0462 184.986 32.0746C184.851 32.1065 184.684 32.1225 184.486 32.1225C184.138 32.1225 183.802 32.0462 183.479 31.8935C183.159 31.7408 182.896 31.5135 182.691 31.2116C182.485 30.9098 182.382 30.5352 182.382 30.0877V21.858ZM187.23 32V23.8182H188.184V32H187.23ZM187.715 22.4119C187.52 22.4119 187.353 22.3462 187.214 22.2148C187.076 22.0799 187.006 21.9183 187.006 21.7301C187.006 21.5419 187.076 21.3821 187.214 21.2507C187.353 21.1158 187.52 21.0483 187.715 21.0483C187.91 21.0483 188.077 21.1158 188.216 21.2507C188.354 21.3821 188.423 21.5419 188.423 21.7301C188.423 21.9183 188.354 22.0799 188.216 22.2148C188.077 22.3462 187.91 22.4119 187.715 22.4119ZM193.813 35.2386C193.255 35.2386 192.767 35.1658 192.348 35.0202C191.929 34.8782 191.575 34.6829 191.288 34.4343C191 34.1857 190.776 33.907 190.617 33.598L191.394 33.0866C191.512 33.2926 191.668 33.495 191.863 33.6939C192.062 33.8928 192.319 34.0579 192.635 34.1893C192.955 34.3207 193.347 34.3864 193.813 34.3864C194.537 34.3864 195.121 34.2053 195.565 33.843C196.013 33.4808 196.236 32.918 196.236 32.1545V30.3114H196.151C196.041 30.56 195.883 30.8086 195.677 31.0572C195.471 31.3022 195.201 31.5064 194.867 31.6697C194.537 31.8331 194.127 31.9148 193.637 31.9148C192.983 31.9148 192.403 31.7532 191.895 31.43C191.391 31.1069 190.993 30.6452 190.702 30.0451C190.414 29.4414 190.27 28.7223 190.27 27.8878C190.27 27.0604 190.411 26.3324 190.691 25.7038C190.975 25.0753 191.371 24.5852 191.879 24.2337C192.387 23.8821 192.978 23.7063 193.653 23.7063C194.154 23.7063 194.569 23.7951 194.899 23.9727C195.23 24.1467 195.494 24.3633 195.693 24.6225C195.895 24.8817 196.053 25.1339 196.167 25.3789H196.263V23.8182H197.19V32.2131C197.19 32.9055 197.042 33.4755 196.748 33.9229C196.453 34.3704 196.052 34.7006 195.544 34.9137C195.036 35.1303 194.459 35.2386 193.813 35.2386ZM193.749 31.0465C194.274 31.0465 194.724 30.9205 195.096 30.6683C195.469 30.4126 195.755 30.0469 195.954 29.571C196.153 29.0952 196.252 28.5288 196.252 27.8718C196.252 27.2326 196.155 26.6662 195.959 26.1726C195.764 25.6754 195.48 25.2848 195.107 25.0007C194.738 24.7131 194.285 24.5692 193.749 24.5692C193.202 24.5692 192.74 24.7166 192.364 25.0114C191.987 25.3061 191.703 25.7038 191.512 26.2045C191.32 26.7017 191.224 27.2575 191.224 27.8718C191.224 28.4968 191.322 29.049 191.517 29.5284C191.712 30.0043 191.998 30.3771 192.374 30.647C192.751 30.9134 193.209 31.0465 193.749 31.0465ZM201.985 32.1864C201.492 32.1864 201.041 32.0906 200.632 31.8988C200.224 31.7035 199.899 31.4229 199.657 31.0572C199.416 30.6879 199.295 30.2404 199.295 29.7148C199.295 29.31 199.372 28.9691 199.524 28.6921C199.677 28.4151 199.894 28.1879 200.174 28.0103C200.455 27.8327 200.787 27.6925 201.17 27.5895C201.554 27.4865 201.976 27.4066 202.438 27.3498C202.896 27.293 203.283 27.2433 203.599 27.2006C203.919 27.158 204.162 27.0906 204.329 26.9982C204.496 26.9059 204.579 26.7567 204.579 26.5508V26.359C204.579 25.8015 204.412 25.3629 204.079 25.0433C203.748 24.7202 203.272 24.5586 202.651 24.5586C202.062 24.5586 201.58 24.6882 201.207 24.9474C200.838 25.2067 200.579 25.5121 200.43 25.8636L199.53 25.5387C199.714 25.0913 199.97 24.7344 200.297 24.468C200.623 24.1982 200.989 24.0046 201.394 23.8874C201.799 23.7667 202.209 23.7063 202.624 23.7063C202.937 23.7063 203.262 23.7472 203.599 23.8288C203.94 23.9105 204.256 24.0526 204.547 24.255C204.839 24.4538 205.075 24.7326 205.256 25.0913C205.437 25.4464 205.527 25.8974 205.527 26.4442V32H204.579V30.7056H204.521C204.407 30.9471 204.238 31.1815 204.015 31.4087C203.791 31.636 203.51 31.8224 203.173 31.968C202.836 32.1136 202.44 32.1864 201.985 32.1864ZM202.113 31.3182C202.617 31.3182 203.054 31.2063 203.423 30.9826C203.793 30.7589 204.077 30.4624 204.276 30.093C204.478 29.7202 204.579 29.31 204.579 28.8626V27.68C204.508 27.7475 204.389 27.8079 204.222 27.8612C204.059 27.9144 203.869 27.9624 203.652 28.005C203.439 28.044 203.226 28.0778 203.013 28.1062C202.8 28.1346 202.608 28.1594 202.438 28.1808C201.976 28.2376 201.582 28.3263 201.255 28.4471C200.929 28.5678 200.678 28.7347 200.504 28.9478C200.33 29.1573 200.243 29.4272 200.243 29.7575C200.243 30.2546 200.421 30.6399 200.776 30.9134C201.131 31.1832 201.577 31.3182 202.113 31.3182ZM211.246 32.1705C210.514 32.1705 209.877 31.9876 209.333 31.6218C208.794 31.256 208.375 30.7553 208.076 30.1197C207.778 29.484 207.629 28.7596 207.629 27.9464C207.629 27.1261 207.78 26.3963 208.082 25.7571C208.387 25.1179 208.81 24.6172 209.349 24.255C209.889 23.8892 210.516 23.7063 211.23 23.7063C211.777 23.7063 212.272 23.8129 212.716 24.0259C213.16 24.2354 213.525 24.532 213.813 24.9155C214.104 25.2955 214.287 25.7393 214.362 26.2472H213.403C213.304 25.7855 213.064 25.3913 212.684 25.0646C212.307 24.7344 211.828 24.5692 211.246 24.5692C210.724 24.5692 210.262 24.7113 209.861 24.9954C209.459 25.2759 209.145 25.6683 208.918 26.1726C208.694 26.6733 208.582 27.2539 208.582 27.9144C208.582 28.5785 208.692 29.1662 208.913 29.6776C209.133 30.1854 209.442 30.5831 209.839 30.8707C210.241 31.1584 210.709 31.3022 211.246 31.3022C211.608 31.3022 211.938 31.2347 212.236 31.0998C212.538 30.9613 212.79 30.766 212.993 30.5138C213.199 30.2617 213.337 29.9616 213.408 29.6136H214.367C214.296 30.1072 214.12 30.5476 213.84 30.9347C213.563 31.3182 213.202 31.62 212.758 31.8402C212.318 32.0604 211.814 32.1705 211.246 32.1705ZM216.41 32V23.8182H217.363V32H216.41ZM216.895 22.4119C216.699 22.4119 216.532 22.3462 216.394 22.2148C216.255 22.0799 216.186 21.9183 216.186 21.7301C216.186 21.5419 216.255 21.3821 216.394 21.2507C216.532 21.1158 216.699 21.0483 216.895 21.0483C217.09 21.0483 217.257 21.1158 217.395 21.2507C217.534 21.3821 217.603 21.5419 217.603 21.7301C217.603 21.9183 217.534 22.0799 217.395 22.2148C217.257 22.3462 217.09 22.4119 216.895 22.4119ZM223.051 32.1705C222.344 32.1705 221.719 31.9911 221.176 31.6325C220.636 31.2738 220.214 30.7784 219.908 30.1463C219.603 29.5107 219.45 28.7773 219.45 27.9464C219.45 27.1083 219.603 26.3714 219.908 25.7358C220.214 25.0966 220.636 24.5994 221.176 24.2443C221.719 23.8857 222.344 23.7063 223.051 23.7063C223.758 23.7063 224.381 23.8857 224.921 24.2443C225.46 24.603 225.883 25.1001 226.188 25.7358C226.497 26.3714 226.652 27.1083 226.652 27.9464C226.652 28.7773 226.499 29.5107 226.194 30.1463C225.888 30.7784 225.464 31.2738 224.921 31.6325C224.381 31.9911 223.758 32.1705 223.051 32.1705ZM223.051 31.3022C223.619 31.3022 224.1 31.1495 224.494 30.8441C224.889 30.5387 225.187 30.1321 225.389 29.6243C225.595 29.1165 225.698 28.5572 225.698 27.9464C225.698 27.3356 225.595 26.7745 225.389 26.2631C225.187 25.7518 224.889 25.3416 224.494 25.0327C224.1 24.7237 223.619 24.5692 223.051 24.5692C222.486 24.5692 222.005 24.7237 221.607 25.0327C221.213 25.3416 220.913 25.7518 220.707 26.2631C220.505 26.7745 220.404 27.3356 220.404 27.9464C220.404 28.5572 220.505 29.1165 220.707 29.6243C220.913 30.1321 221.213 30.5387 221.607 30.8441C222.002 31.1495 222.483 31.3022 223.051 31.3022ZM222.609 22.6836L223.972 20.2653H225.096L223.461 22.6836H222.609ZM229.681 26.8864V32H228.733V23.8182H229.655V25.1019H229.74C229.932 24.6829 230.23 24.3473 230.635 24.0952C231.043 23.8395 231.547 23.7116 232.148 23.7116C232.698 23.7116 233.181 23.8271 233.597 24.0579C234.016 24.2852 234.34 24.6207 234.571 25.0646C234.806 25.5085 234.923 26.0536 234.923 26.6999V32H233.975V26.7585C233.975 26.0874 233.786 25.5565 233.41 25.1658C233.037 24.7752 232.536 24.5799 231.908 24.5799C231.478 24.5799 231.097 24.6722 230.763 24.8569C230.429 25.0415 230.164 25.3079 229.969 25.6559C229.777 26.0004 229.681 26.4105 229.681 26.8864Z" fill="white"/>
<path d="M134.432 0.150568V36.0312H133.75V0.150568H134.432Z" fill="white"/>
<path d="M21.147 14.8203H16.4808C16.3956 14.2166 16.2216 13.6804 15.9588 13.2116C15.696 12.7358 15.3587 12.331 14.9467 11.9972C14.5348 11.6634 14.0589 11.4077 13.5192 11.2301C12.9865 11.0526 12.4077 10.9638 11.7827 10.9638C10.6534 10.9638 9.66974 11.2443 8.83168 11.8054C7.99361 12.3594 7.34375 13.169 6.8821 14.2344C6.42045 15.2926 6.18963 16.5781 6.18963 18.0909C6.18963 19.6463 6.42045 20.9531 6.8821 22.0114C7.35085 23.0696 8.00426 23.8686 8.84233 24.4084C9.6804 24.9482 10.6499 25.218 11.7507 25.218C12.3686 25.218 12.9403 25.1364 13.4659 24.973C13.9986 24.8097 14.4709 24.5717 14.8828 24.2592C15.2947 23.9396 15.6357 23.5526 15.9055 23.098C16.1825 22.6435 16.3743 22.125 16.4808 21.5426L21.147 21.5639C21.0263 22.5653 20.7244 23.5312 20.2415 24.4616C19.7656 25.3849 19.1229 26.2124 18.3132 26.9439C17.5107 27.6683 16.5518 28.2436 15.4368 28.6697C14.3288 29.0888 13.0753 29.2983 11.6761 29.2983C9.73011 29.2983 7.99006 28.858 6.45597 27.9773C4.92898 27.0966 3.72159 25.8217 2.83381 24.1527C1.95312 22.4837 1.51278 20.4631 1.51278 18.0909C1.51278 15.7116 1.96023 13.6875 2.85511 12.0185C3.75 10.3494 4.96449 9.07812 6.49858 8.20455C8.03267 7.32386 9.75852 6.88352 11.6761 6.88352C12.9403 6.88352 14.1122 7.06108 15.1918 7.41619C16.2784 7.77131 17.2408 8.28977 18.0788 8.97159C18.9169 9.64631 19.5987 10.4737 20.1243 11.4538C20.657 12.4339 20.9979 13.5561 21.147 14.8203ZM44.5046 18.0909C44.5046 20.4702 44.0536 22.4943 43.1516 24.1634C42.2567 25.8324 41.0352 27.1072 39.4869 27.9879C37.9457 28.8615 36.2127 29.2983 34.288 29.2983C32.3491 29.2983 30.609 28.858 29.0678 27.9773C27.5266 27.0966 26.3086 25.8217 25.4137 24.1527C24.5188 22.4837 24.0714 20.4631 24.0714 18.0909C24.0714 15.7116 24.5188 13.6875 25.4137 12.0185C26.3086 10.3494 27.5266 9.07812 29.0678 8.20455C30.609 7.32386 32.3491 6.88352 34.288 6.88352C36.2127 6.88352 37.9457 7.32386 39.4869 8.20455C41.0352 9.07812 42.2567 10.3494 43.1516 12.0185C44.0536 13.6875 44.5046 15.7116 44.5046 18.0909ZM39.8278 18.0909C39.8278 16.5497 39.5969 15.25 39.1353 14.1918C38.6808 13.1335 38.038 12.331 37.207 11.7841C36.3761 11.2372 35.4031 10.9638 34.288 10.9638C33.1729 10.9638 32.1999 11.2372 31.369 11.7841C30.538 12.331 29.8917 13.1335 29.43 14.1918C28.9755 15.25 28.7482 16.5497 28.7482 18.0909C28.7482 19.6321 28.9755 20.9318 29.43 21.9901C29.8917 23.0483 30.538 23.8509 31.369 24.3977C32.1999 24.9446 33.1729 25.218 34.288 25.218C35.4031 25.218 36.3761 24.9446 37.207 24.3977C38.038 23.8509 38.6808 23.0483 39.1353 21.9901C39.5969 20.9318 39.8278 19.6321 39.8278 18.0909ZM67.9714 18.0909C67.9714 20.4702 67.5204 22.4943 66.6184 24.1634C65.7235 25.8324 64.502 27.1072 62.9537 27.9879C61.4125 28.8615 59.6795 29.2983 57.7548 29.2983C55.8159 29.2983 54.0758 28.858 52.5346 27.9773C50.9934 27.0966 49.7754 25.8217 48.8805 24.1527C47.9856 22.4837 47.5382 20.4631 47.5382 18.0909C47.5382 15.7116 47.9856 13.6875 48.8805 12.0185C49.7754 10.3494 50.9934 9.07812 52.5346 8.20455C54.0758 7.32386 55.8159 6.88352 57.7548 6.88352C59.6795 6.88352 61.4125 7.32386 62.9537 8.20455C64.502 9.07812 65.7235 10.3494 66.6184 12.0185C67.5204 13.6875 67.9714 15.7116 67.9714 18.0909ZM63.2946 18.0909C63.2946 16.5497 63.0637 15.25 62.6021 14.1918C62.1475 13.1335 61.5048 12.331 60.6738 11.7841C59.8429 11.2372 58.8699 10.9638 57.7548 10.9638C56.6397 10.9638 55.6667 11.2372 54.8358 11.7841C54.0048 12.331 53.3585 13.1335 52.8968 14.1918C52.4423 15.25 52.215 16.5497 52.215 18.0909C52.215 19.6321 52.4423 20.9318 52.8968 21.9901C53.3585 23.0483 54.0048 23.8509 54.8358 24.3977C55.6667 24.9446 56.6397 25.218 57.7548 25.218C58.8699 25.218 59.8429 24.9446 60.6738 24.3977C61.5048 23.8509 62.1475 23.0483 62.6021 21.9901C63.0637 20.9318 63.2946 19.6321 63.2946 18.0909Z" fill="#FFAE36"/>
<path d="M77.5092 7.18182V29H72.8963V7.18182H77.5092ZM99.5538 7.18182V29H95.5694L86.0772 15.2678H85.9174V29H81.3045V7.18182H85.3528L94.7704 20.9034H94.9622V7.18182H99.5538ZM107.307 7.18182L112.58 23.7585H112.783L118.067 7.18182H123.18L115.659 29H109.714L102.183 7.18182H107.307Z" fill="white"/>
</svg>
